<svg xmlns="http://www.w3.org/2000/svg" version="1.1" xmlns:xlink="http://www.w3.org/1999/xlink" xmlns:svgjs="http://svgjs.dev/svgjs" width="1440" height="560" preserveAspectRatio="none" viewBox="0 0 1440 560"><g mask="url(&quot;#SvgjsMask1014&quot;)" fill="none"><rect width="1440" height="560" x="0" y="0" fill="rgba(52, 55, 57, 1)"></rect><path d="M1440 0L790.7 0L1440 235.48z" fill="rgba(255, 255, 255, .1)"></path><path d="M790.7 0L1440 235.48L1440 375.08L487.35 0z" fill="rgba(255, 255, 255, .075)"></path><path d="M487.35 0L1440 375.08L1440 399.28999999999996L226.61 0z" fill="rgba(255, 255, 255, .05)"></path><path d="M226.61000000000013 0L1440 399.28999999999996L1440 435.85999999999996L175.97000000000014 0z" fill="rgba(255, 255, 255, .025)"></path><path d="M0 560L504.37 560L0 458.14z" fill="rgba(0, 0, 0, .1)"></path><path d="M0 458.14L504.37 560L976.3 560L0 420.91999999999996z" fill="rgba(0, 0, 0, .075)"></path><path d="M0 420.92L976.3 560L1071.87 560L0 332.93z" fill="rgba(0, 0, 0, .05)"></path><path d="M0 332.93L1071.87 560L1092.34 560L0 295.07z" fill="rgba(0, 0, 0, .025)"></path></g><defs><mask id="SvgjsMask1014"><rect width="1440" height="560" fill="#ffffff"></rect></mask></defs></svg>